# xmcd
#
# Track frame offsets:
#	150
#	15552
#	24785
#	39737
#	50745
#	63372
#	79592
#	89525
#	110565
#	118690
#	129770
#	139247
#	152660
#	165142
#
# Disc length: 2346 seconds
#
# Revision: 1
# Processed by: cddbd v1.5.2PL0 Copyright (c) Steve Scherf et al.
# Submitted via: audiograbber 1.83.01
#
DISCID=a809280e
DTITLE=Jim Cox - I can't tell my heart
DYEAR=1900
DGENRE=Country
TTITLE0=I'll be growing up now
TTITLE1=A brand new look
TTITLE2=Standing in the shadows
TTITLE3=K-Mart Katie
TTITLE4=Goin' outta my way
TTITLE5=Gina says
TTITLE6=I'll be standing by
TTITLE7=Good-bye was over
TTITLE8=I'll keep on keepin' on
TTITLE9=I'm not in the mood
TTITLE10=Pickin' cotton
TTITLE11=Jimmy
TTITLE12=I can't tell my heart
TTITLE13=Colorado
EXTD=
EXTT0=
EXTT1=
EXTT2=
EXTT3=
EXTT4=
EXTT5=
EXTT6=
EXTT7=
EXTT8=
EXTT9=
EXTT10=
EXTT11=
EXTT12=
EXTT13=
PLAYORDER=
